<?xml version="1.0" encoding="utf-8"?>
<!-- Generator: Adobe Illustrator 23.1.1, SVG Export Plug-In . SVG Version: 6.00 Build 0)  -->
<svg version="1.1" id="Layer_1" xmlns="http://www.w3.org/2000/svg" xmlns:xlink="http://www.w3.org/1999/xlink" x="0px" y="0px"
	 viewBox="0 0 1000 1000" style="enable-background:new 0 0 1000 1000;" xml:space="preserve">
<style type="text/css">
	.st0{fill:#DCE2E1;}
	.st1{fill:#444E59;}
	.st2{opacity:0.28;fill:#848484;}
	.st3{fill:#F09F54;}
	.st4{opacity:0.29;fill:#F09F54;}
	.st5{fill:none;stroke:#444E59;stroke-width:4;stroke-linecap:round;stroke-linejoin:round;stroke-miterlimit:10;}
	.st6{fill:none;stroke:#444E59;stroke-width:3;stroke-linecap:round;stroke-linejoin:round;stroke-miterlimit:10;}
	.st7{fill:#848484;}
	.st8{opacity:0.25;fill:#848484;}
	.st9{fill:#FFFFFF;}
	.st10{fill:#71A850;}
	.st11{opacity:0.4;fill:#71A850;}
	.st12{opacity:0.48;fill:#848484;}
	.st13{fill:#E9FBFF;}
	.st14{fill:#C9C9C9;}
	.st15{fill:none;stroke:#444E59;stroke-width:5;stroke-linecap:round;stroke-linejoin:round;stroke-miterlimit:10;}
	.st16{opacity:0.29;fill:#848484;}
	.st17{opacity:0.3;}
	.st18{fill:none;stroke:#444E59;stroke-width:2;stroke-linecap:round;stroke-linejoin:round;stroke-dasharray:4.0794,4.0794;}
	.st19{opacity:0.52;fill:#5F8C42;}
	.st20{opacity:0.52;fill:#D38444;}
	.st21{fill:#2FA9ED;}
	.st22{opacity:0.52;fill:#288FBC;}
	.st23{fill:#E7534E;}
	.st24{opacity:0.52;fill:#BF4040;}
	.st25{fill:none;stroke:#FFFFFF;stroke-width:4;stroke-linecap:round;stroke-linejoin:round;stroke-miterlimit:10;}
	.st26{opacity:0.29;}
	.st27{fill:#BCBCBC;}
	.st28{fill:none;stroke:#64BDFF;stroke-width:4;stroke-linecap:round;stroke-linejoin:round;stroke-miterlimit:10;}
	.st29{fill:none;stroke:#FF5F5F;stroke-width:4;stroke-linecap:round;stroke-linejoin:round;stroke-miterlimit:10;}
	.st30{fill:none;stroke:#FFBE78;stroke-width:4;stroke-linecap:round;stroke-linejoin:round;stroke-miterlimit:10;}
	.st31{fill:none;stroke:#C383F2;stroke-width:4;stroke-linecap:round;stroke-linejoin:round;stroke-miterlimit:10;}
	.st32{fill:none;stroke:#6DBF7B;stroke-width:4;stroke-linecap:round;stroke-linejoin:round;stroke-miterlimit:10;}
	.st33{fill:#9483C4;}
	.st34{opacity:0.56;fill:none;stroke:#FFFFFF;stroke-width:3;stroke-linecap:round;stroke-linejoin:round;stroke-miterlimit:10;}
	.st35{opacity:0.56;}
	.st36{fill:none;stroke:#FFFFFF;stroke-width:3;stroke-linecap:round;stroke-linejoin:round;stroke-miterlimit:10;}
</style>
<rect id="XMLID_272_" x="0" class="st0" width="1000" height="1000"/>
<g id="XMLID_238_">
	<path id="XMLID_1313_" class="st2" d="M837.8,666.3H162.2c-5,0-9-4-9-9v0c0-5,4-9,9-9h675.7c5,0,9,4,9,9v0
		C846.8,662.3,842.8,666.3,837.8,666.3z"/>
	<g id="XMLID_45_">
		<path id="XMLID_41_" class="st3" d="M808.5,573.9c0-37.2-28.2-67.8-64.7-71.3v-8.4h-21.9v160.7h21.9v-9.7
			C780.2,641.7,808.5,611.1,808.5,573.9z M743.7,622.1v-96.3c23.4,3.4,41.8,23.7,41.8,48.2C785.5,598.4,767.1,618.7,743.7,622.1z"/>
		<path id="XMLID_222_" class="st4" d="M743.7,502.6v-8.4h-21.9v160.7h21.9v-9.7c36.5-3.5,64.7-34,64.7-71.3
			C808.5,536.7,780.2,506.1,743.7,502.6z M743.7,637.8v8.3h-20.5V501.5h20.5v8.5c32.1,3.1,58,30.5,58,63.9
			C801.8,607.3,775.9,634.7,743.7,637.8z"/>
		<path id="XMLID_48_" class="st5" d="M808.5,573.9c0-37.2-28.2-67.8-64.7-71.3v-8.4h-21.9v160.7h21.9v-9.7
			C780.2,641.7,808.5,611.1,808.5,573.9z M743.7,622.1v-96.3c23.4,3.4,41.8,23.7,41.8,48.2C785.5,598.4,767.1,618.7,743.7,622.1z"/>
		<g id="XMLID_49_">
			<g id="XMLID_67_">
				<line id="XMLID_68_" class="st6" x1="730.6" y1="638.8" x2="721.8" y2="638.8"/>
			</g>
			<g id="XMLID_65_">
				<line id="XMLID_66_" class="st6" x1="730.6" y1="622.8" x2="721.8" y2="622.8"/>
			</g>
			<g id="XMLID_63_">
				<line id="XMLID_64_" class="st6" x1="730.6" y1="606.7" x2="721.8" y2="606.7"/>
			</g>
			<g id="XMLID_61_">
				<line id="XMLID_62_" class="st6" x1="730.6" y1="590.6" x2="721.8" y2="590.6"/>
			</g>
			<g id="XMLID_59_">
				<line id="XMLID_60_" class="st6" x1="730.6" y1="574.6" x2="721.8" y2="574.6"/>
			</g>
			<g id="XMLID_56_">
				<line id="XMLID_57_" class="st6" x1="730.6" y1="558.5" x2="721.8" y2="558.5"/>
			</g>
			<g id="XMLID_54_">
				<line id="XMLID_55_" class="st6" x1="730.6" y1="542.4" x2="721.8" y2="542.4"/>
			</g>
			<g id="XMLID_52_">
				<line id="XMLID_53_" class="st6" x1="730.6" y1="526.3" x2="721.8" y2="526.3"/>
			</g>
			<g id="XMLID_50_">
				<line id="XMLID_51_" class="st6" x1="730.6" y1="510.3" x2="721.8" y2="510.3"/>
			</g>
		</g>
	</g>
	<g id="XMLID_212_">
		<rect id="XMLID_207_" x="673.3" y="412.9" class="st3" width="33.1" height="241.6"/>
		<rect id="XMLID_208_" x="673.3" y="412.9" class="st3" width="33.1" height="241.6"/>
		<rect id="XMLID_209_" x="692" y="412.9" class="st4" width="14.4" height="241.6"/>
		<rect id="XMLID_121_" x="673.3" y="412.9" class="st5" width="33.1" height="241.6"/>
		<g id="XMLID_203_">
			<g id="XMLID_266_">
				<line id="XMLID_269_" class="st6" x1="684.8" y1="630.1" x2="673.3" y2="630.1"/>
				<line id="XMLID_268_" class="st6" x1="680.4" y1="641.6" x2="673.3" y2="641.6"/>
			</g>
			<g id="XMLID_262_">
				<line id="XMLID_265_" class="st6" x1="684.8" y1="607.1" x2="673.3" y2="607.1"/>
				<line id="XMLID_264_" class="st6" x1="680.4" y1="618.6" x2="673.3" y2="618.6"/>
			</g>
			<g id="XMLID_258_">
				<line id="XMLID_261_" class="st6" x1="684.8" y1="584.1" x2="673.3" y2="584.1"/>
				<line id="XMLID_260_" class="st6" x1="680.4" y1="595.6" x2="673.3" y2="595.6"/>
			</g>
			<g id="XMLID_254_">
				<line id="XMLID_257_" class="st6" x1="684.8" y1="561" x2="673.3" y2="561"/>
				<line id="XMLID_256_" class="st6" x1="680.4" y1="572.5" x2="673.3" y2="572.5"/>
			</g>
			<g id="XMLID_249_">
				<line id="XMLID_253_" class="st6" x1="684.8" y1="538" x2="673.3" y2="538"/>
				<line id="XMLID_251_" class="st6" x1="680.4" y1="549.5" x2="673.3" y2="549.5"/>
			</g>
			<g id="XMLID_245_">
				<line id="XMLID_248_" class="st6" x1="684.8" y1="515" x2="673.3" y2="515"/>
				<line id="XMLID_247_" class="st6" x1="680.4" y1="526.5" x2="673.3" y2="526.5"/>
			</g>
			<g id="XMLID_223_">
				<line id="XMLID_244_" class="st6" x1="684.8" y1="492" x2="673.3" y2="492"/>
				<line id="XMLID_243_" class="st6" x1="680.4" y1="503.5" x2="673.3" y2="503.5"/>
			</g>
			<g id="XMLID_215_">
				<line id="XMLID_219_" class="st6" x1="684.8" y1="469" x2="673.3" y2="469"/>
				<line id="XMLID_218_" class="st6" x1="680.4" y1="480.5" x2="673.3" y2="480.5"/>
			</g>
			<g id="XMLID_118_">
				<line id="XMLID_210_" class="st6" x1="684.8" y1="446" x2="673.3" y2="446"/>
				<line id="XMLID_141_" class="st6" x1="680.4" y1="457.5" x2="673.3" y2="457.5"/>
			</g>
			<g id="XMLID_36_">
				<line id="XMLID_113_" class="st6" x1="684.8" y1="423" x2="673.3" y2="423"/>
				<line id="XMLID_112_" class="st6" x1="680.4" y1="434.5" x2="673.3" y2="434.5"/>
			</g>
		</g>
	</g>
	<g id="XMLID_1_">
		<rect id="XMLID_93_" x="612.1" y="471.3" class="st7" width="12.9" height="34.1"/>
		<rect id="XMLID_237_" x="612.1" y="471.3" class="st8" width="4.8" height="34.1"/>
		<rect id="XMLID_40_" x="612.1" y="471.3" class="st5" width="12.9" height="34.1"/>
		<rect id="XMLID_95_" x="615.6" y="505.5" class="st9" width="5.9" height="16.5"/>
		<rect id="XMLID_42_" x="615.6" y="505.5" class="st5" width="5.9" height="16.5"/>
		<g id="XMLID_16_">
			<polygon id="XMLID_98_" class="st9" points="608.6,536.7 578.6,654.4 624.2,538.3 			"/>
			<polygon id="XMLID_37_" class="st5" points="608.6,536.7 578.6,654.4 624.2,538.3 			"/>
			<polygon id="XMLID_97_" class="st9" points="628.6,536.7 658.6,654.4 613.1,538.3 			"/>
			<polygon id="XMLID_38_" class="st5" points="628.6,536.7 658.6,654.4 613.1,538.3 			"/>
		</g>
		<circle id="XMLID_91_" class="st10" cx="618.6" cy="539.8" r="20"/>
		<path id="XMLID_241_" class="st11" d="M604.2,539.8c0-10.1,7.5-18.4,17.2-19.8c-0.9-0.1-1.8-0.2-2.8-0.2c-11,0-20,9-20,20
			s9,20,20,20c0.9,0,1.9-0.1,2.8-0.2C611.7,558.2,604.2,549.9,604.2,539.8z"/>
		<circle id="XMLID_39_" class="st5" cx="618.6" cy="539.8" r="20"/>
		<circle id="XMLID_94_" class="st1" cx="618.6" cy="539.8" r="6.8"/>
		<circle id="XMLID_92_" class="st5" cx="618.6" cy="539.8" r="6.8"/>
	</g>
	<path id="XMLID_75_" class="st7" d="M546.4,654.2h-132c-7.7,0-14-6.3-14-14v-272c0-7.7,6.3-14,14-14h132c7.7,0,14,6.3,14,14v272
		C560.4,647.9,554.1,654.2,546.4,654.2z"/>
	<path id="XMLID_116_" class="st2" d="M546.4,354.2H538c7.7,0,14,6.3,14,14v272c0,7.7-6.3,14-14,14h8.5c7.7,0,14-6.3,14-14v-272
		C560.4,360.4,554.1,354.2,546.4,354.2z"/>
	<path id="XMLID_81_" class="st12" d="M408.7,640.2v-272c0-7.7,6.3-14,14-14h-8.3c-7.7,0-14,6.3-14,14v272c0,7.7,6.3,14,14,14h8.3
		C415,654.2,408.7,647.9,408.7,640.2z"/>
	<path id="XMLID_3_" class="st5" d="M546.4,654.2h-132c-7.7,0-14-6.3-14-14v-272c0-7.7,6.3-14,14-14h132c7.7,0,14,6.3,14,14v272
		C560.4,647.9,554.1,654.2,546.4,654.2z"/>
	
		<rect id="XMLID_77_" x="368.4" y="423.7" transform="matrix(-1.836970e-16 1 -1 -1.836970e-16 984.1191 23.288)" class="st13" width="224" height="160"/>
	<path id="XMLID_5_" class="st14" d="M559.6,463.9h-12.5c-6.8,0-12.3-5.5-12.3-12.3v-30.5c0-6.8,5.5-12.3,12.3-12.3h12.5V463.9z"/>
	<path id="XMLID_2_" class="st14" d="M409.6,587.5h-9.2v-97.3h9.2c6.9,0,12.5,5.6,12.5,12.5v72.3C422,581.9,416.5,587.5,409.6,587.5
		z"/>
	
		<rect id="XMLID_6_" x="368.4" y="423.7" transform="matrix(-1.836970e-16 1 -1 -1.836970e-16 984.1191 23.288)" class="st5" width="224" height="160"/>
	<g id="XMLID_4_">
		<line id="XMLID_9_" class="st15" x1="502.4" y1="374.2" x2="509.4" y2="374.2"/>
		<line id="XMLID_7_" class="st15" x1="451.4" y1="374.2" x2="491.4" y2="374.2"/>
	</g>
	<g id="XMLID_228_">
		<circle id="XMLID_8_" class="st16" cx="480.4" cy="632.6" r="11"/>
		<circle id="XMLID_78_" class="st1" cx="480.4" cy="632.6" r="8.4"/>
	</g>
	<g id="XMLID_14_" class="st17">
		<g id="XMLID_32_">
			<g id="XMLID_58_">
				<path class="st18" d="M443.9,588.9h-16c-4.4,0-8-3.6-8-8v-16c0-4.4,3.6-8,8-8h16c4.4,0,8,3.6,8,8v16
					C451.9,585.3,448.3,588.9,443.9,588.9z"/>
			</g>
			<g id="XMLID_35_">
				<path class="st18" d="M532.4,588.9h-16c-4.4,0-8-3.6-8-8v-16c0-4.4,3.6-8,8-8h16c4.4,0,8,3.6,8,8v16
					C540.4,585.3,536.8,588.9,532.4,588.9z"/>
			</g>
			<g id="XMLID_34_">
				<path class="st18" d="M488.4,588.9h-16c-4.4,0-8-3.6-8-8v-16c0-4.4,3.6-8,8-8h16c4.4,0,8,3.6,8,8v16
					C496.4,585.3,492.8,588.9,488.4,588.9z"/>
			</g>
		</g>
		<g id="XMLID_27_">
			<g id="XMLID_31_">
				<path class="st18" d="M443.9,540.9h-16c-4.4,0-8-3.6-8-8v-16c0-4.4,3.6-8,8-8h16c4.4,0,8,3.6,8,8v16
					C451.9,537.3,448.3,540.9,443.9,540.9z"/>
			</g>
			<g id="XMLID_30_">
				<path class="st18" d="M532.4,540.9h-16c-4.4,0-8-3.6-8-8v-16c0-4.4,3.6-8,8-8h16c4.4,0,8,3.6,8,8v16
					C540.4,537.3,536.8,540.9,532.4,540.9z"/>
			</g>
			<g id="XMLID_29_">
				<path class="st18" d="M488.4,540.9h-16c-4.4,0-8-3.6-8-8v-16c0-4.4,3.6-8,8-8h16c4.4,0,8,3.6,8,8v16
					C496.4,537.3,492.8,540.9,488.4,540.9z"/>
			</g>
		</g>
		<g id="XMLID_22_">
			<g id="XMLID_26_">
				<path class="st18" d="M443.9,492.9h-16c-4.4,0-8-3.6-8-8v-16c0-4.4,3.6-8,8-8h16c4.4,0,8,3.6,8,8v16
					C451.9,489.3,448.3,492.9,443.9,492.9z"/>
			</g>
			<g id="XMLID_25_">
				<path class="st18" d="M532.4,492.9h-16c-4.4,0-8-3.6-8-8v-16c0-4.4,3.6-8,8-8h16c4.4,0,8,3.6,8,8v16
					C540.4,489.3,536.8,492.9,532.4,492.9z"/>
			</g>
			<g id="XMLID_24_">
				<path class="st18" d="M488.4,492.9h-16c-4.4,0-8-3.6-8-8v-16c0-4.4,3.6-8,8-8h16c4.4,0,8,3.6,8,8v16
					C496.4,489.3,492.8,492.9,488.4,492.9z"/>
			</g>
		</g>
		<g id="XMLID_17_">
			<g id="XMLID_21_">
				<path class="st18" d="M443.9,444.9h-16c-4.4,0-8-3.6-8-8v-16c0-4.4,3.6-8,8-8h16c4.4,0,8,3.6,8,8v16
					C451.9,441.3,448.3,444.9,443.9,444.9z"/>
			</g>
			<g id="XMLID_20_">
				<path class="st18" d="M532.4,444.9h-16c-4.4,0-8-3.6-8-8v-16c0-4.4,3.6-8,8-8h16c4.4,0,8,3.6,8,8v16
					C540.4,441.3,536.8,444.9,532.4,444.9z"/>
			</g>
			<g id="XMLID_19_">
				<path class="st18" d="M488.4,444.9h-16c-4.4,0-8-3.6-8-8v-16c0-4.4,3.6-8,8-8h16c4.4,0,8,3.6,8,8v16
					C496.4,441.3,492.8,444.9,488.4,444.9z"/>
			</g>
		</g>
	</g>
	<path id="XMLID_73_" class="st10" d="M443.9,588.9h-16c-4.4,0-8-3.6-8-8v-16c0-4.4,3.6-8,8-8h16c4.4,0,8,3.6,8,8v16
		C451.9,585.3,448.3,588.9,443.9,588.9z"/>
	<path id="XMLID_80_" class="st19" d="M443.9,556.9h-16c-3.2,0-6,1.9-7.2,4.6l31.2,5.6v-2.2C451.9,560.5,448.3,556.9,443.9,556.9z"
		/>
	<path id="XMLID_76_" class="st5" d="M443.9,588.9h-16c-4.4,0-8-3.6-8-8v-16c0-4.4,3.6-8,8-8h16c4.4,0,8,3.6,8,8v16
		C451.9,585.3,448.3,588.9,443.9,588.9z"/>
	<path id="XMLID_72_" class="st3" d="M488.4,588.9h-16c-4.4,0-8-3.6-8-8v-16c0-4.4,3.6-8,8-8h16c4.4,0,8,3.6,8,8v16
		C496.4,585.3,492.8,588.9,488.4,588.9z"/>
	<path id="XMLID_79_" class="st20" d="M488.4,556.9h-16c-3.2,0-6,1.9-7.2,4.6l31.2,5.6v-2.2C496.4,560.5,492.8,556.9,488.4,556.9z"
		/>
	<path id="XMLID_74_" class="st5" d="M488.4,588.9h-16c-4.4,0-8-3.6-8-8v-16c0-4.4,3.6-8,8-8h16c4.4,0,8,3.6,8,8v16
		C496.4,585.3,492.8,588.9,488.4,588.9z"/>
	<g id="XMLID_33_">
		<path id="XMLID_70_" class="st21" d="M532.4,540.9h-16c-4.4,0-8-3.6-8-8v-16c0-4.4,3.6-8,8-8h16c4.4,0,8,3.6,8,8v16
			C540.4,537.3,536.8,540.9,532.4,540.9z"/>
	</g>
	<path id="XMLID_119_" class="st22" d="M532.4,508.9h-16c-3.2,0-6,1.9-7.2,4.6l31.2,5.6v-2.2C540.4,512.5,536.8,508.9,532.4,508.9z"
		/>
	<g id="XMLID_69_">
		<path id="XMLID_71_" class="st5" d="M532.4,540.9h-16c-4.4,0-8-3.6-8-8v-16c0-4.4,3.6-8,8-8h16c4.4,0,8,3.6,8,8v16
			C540.4,537.3,536.8,540.9,532.4,540.9z"/>
	</g>
	<g id="XMLID_13_">
		<g>
			<path id="XMLID_90_" class="st23" d="M488.4,492.9h-16c-4.4,0-8-3.6-8-8v-16c0-4.4,3.6-8,8-8h16c4.4,0,8,3.6,8,8v16
				C496.4,489.3,492.8,492.9,488.4,492.9z"/>
		</g>
	</g>
	<path id="XMLID_124_" class="st24" d="M488.4,460.9h-16c-3.2,0-6,1.9-7.2,4.6l31.2,5.6v-2.2C496.4,464.5,492.8,460.9,488.4,460.9z"
		/>
	<g id="XMLID_18_">
		<path id="XMLID_23_" class="st5" d="M488.4,492.9h-16c-4.4,0-8-3.6-8-8v-16c0-4.4,3.6-8,8-8h16c4.4,0,8,3.6,8,8v16
			C496.4,489.3,492.8,492.9,488.4,492.9z"/>
	</g>
	<path id="XMLID_10_" class="st9" d="M521.8,517.9l9.2,5.3c1.3,0.8,1.3,2.7,0,3.4l-9.2,5.3c-1.3,0.8-3-0.2-3-1.7v-10.6
		C518.8,518.1,520.5,517.1,521.8,517.9z"/>
	<path id="XMLID_15_" class="st9" d="M484.6,566.7h-8.4c-1.8,0-3.2,1.5-3.2,3.2v6.2c0,1.8,1.5,3.2,3.2,3.2h0.3l-0.7,2.8
		c-0.1,0.2,0.2,0.4,0.4,0.2l4.3-3h4.3c1.8,0,3.2-1.5,3.2-3.2v-6.2C487.9,568.1,486.4,566.7,484.6,566.7z"/>
	<path id="XMLID_11_" class="st25" d="M429.7,572.9l3.7,3.7c0.5,0.5,1.3,0.5,1.8,0l8.3-8.3"/>
	<circle id="XMLID_12_" class="st25" cx="480.4" cy="476.9" r="7.5"/>
	<g id="XMLID_131_">
		<path id="XMLID_115_" class="st9" d="M420,437.9l-0.2-15l-10,0.1c-0.6-1.9-1.3-3.6-2.3-5.3l7-7.2l-10.7-10.5l-7,7.2
			c-1.7-0.9-3.5-1.6-5.4-2.1l-0.1-10l-15,0.2l0.1,10c-1.9,0.6-3.6,1.3-5.3,2.3l-7.2-7l-10.5,10.7l7.2,7c-0.9,1.7-1.6,3.5-2.1,5.4
			l-10,0.1l0.2,15l10-0.1c0.6,1.9,1.3,3.6,2.3,5.3l-7,7.2l10.7,10.5l7-7.2c1.7,0.9,3.5,1.6,5.4,2.1l0.1,10l15-0.2l-0.1-10
			c1.9-0.6,3.6-1.3,5.3-2.3l7.2,7l10.5-10.7l-7.2-7c0.9-1.7,1.6-3.5,2.1-5.4L420,437.9z M384.5,442.5c-6.5,0.1-11.7-5.1-11.8-11.6
			c-0.1-6.5,5.1-11.7,11.6-11.8c6.5-0.1,11.7,5.1,11.8,11.6C396.1,437.2,390.9,442.4,384.5,442.5z"/>
		<path id="XMLID_191_" class="st3" d="M420,437.9l-0.2-15l-10,0.1c-0.6-1.9-1.3-3.6-2.3-5.3l7-7.2l-10.7-10.5l-7,7.2
			c-1.7-0.9-3.5-1.6-5.4-2.1l-0.1-10l-15,0.2l0.1,10c-1.9,0.6-3.6,1.3-5.3,2.3l-7.2-7l-10.5,10.7l7.2,7c-0.9,1.7-1.6,3.5-2.1,5.4
			l-10,0.1l0.2,15l10-0.1c0.6,1.9,1.3,3.6,2.3,5.3l-7,7.2l10.7,10.5l7-7.2c1.7,0.9,3.5,1.6,5.4,2.1l0.1,10l15-0.2l-0.1-10
			c1.9-0.6,3.6-1.3,5.3-2.3l7.2,7l10.5-10.7l-7.2-7c0.9-1.7,1.6-3.5,2.1-5.4L420,437.9z M384.5,442.5c-6.5,0.1-11.7-5.1-11.8-11.6
			c-0.1-6.5,5.1-11.7,11.6-11.8c6.5-0.1,11.7,5.1,11.8,11.6C396.1,437.2,390.9,442.4,384.5,442.5z"/>
		<path id="XMLID_234_" class="st3" d="M420,437.9l-0.2-15l-10,0.1c-0.6-1.9-1.3-3.6-2.3-5.3l7-7.2l-10.7-10.5l-7,7.2
			c-1.7-0.9-3.5-1.6-5.4-2.1l-0.1-10l-15,0.2l0.1,10c-1.9,0.6-3.6,1.3-5.3,2.3l-7.2-7l-10.5,10.7l7.2,7c-0.9,1.7-1.6,3.5-2.1,5.4
			l-10,0.1l0.2,15l10-0.1c0.6,1.9,1.3,3.6,2.3,5.3l-7,7.2l10.7,10.5l7-7.2c1.7,0.9,3.5,1.6,5.4,2.1l0.1,10l15-0.2l-0.1-10
			c1.9-0.6,3.6-1.3,5.3-2.3l7.2,7l10.5-10.7l-7.2-7c0.9-1.7,1.6-3.5,2.1-5.4L420,437.9z M384.5,442.5c-6.5,0.1-11.7-5.1-11.8-11.6
			c-0.1-6.5,5.1-11.7,11.6-11.8c6.5-0.1,11.7,5.1,11.8,11.6C396.1,437.2,390.9,442.4,384.5,442.5z"/>
		<g id="XMLID_246_" class="st26">
			<path id="XMLID_250_" class="st3" d="M416.2,423C416.2,423,416.2,423.1,416.2,423l3.7,0l0-0.1L416.2,423z"/>
			<path id="XMLID_252_" class="st3" d="M403.2,407.3l3.9-4l-3.2-3.2l-5.2,5.3C400.3,405.9,401.8,406.5,403.2,407.3z"/>
			<path id="XMLID_255_" class="st3" d="M390.5,419.1c-1.1,0-2.1,0.2-3,0.4c4.9,1.4,8.5,5.8,8.5,11.1c0.1,5.4-3.6,10-8.5,11.4
				c1,0.3,2.2,0.5,3.3,0.4c6.5-0.1,11.6-5.4,11.6-11.8S397,419.1,390.5,419.1z"/>
			<path id="XMLID_259_" class="st3" d="M375.6,405.6l2,1.9c1.7-0.9,3.4-1.7,5.3-2.3l-0.1-10l8.6-0.1l0-0.1l-15,0.2l0.1,10
				C376.3,405.4,375.9,405.5,375.6,405.6z"/>
			<path id="XMLID_263_" class="st3" d="M383.4,456.5c-1.9-0.5-3.7-1.2-5.4-2.1l-1.8,1.9c0.3,0.1,0.6,0.2,0.9,0.3l0.1,10l6.3-0.1
				L383.4,456.5z"/>
			<path id="XMLID_267_" class="st3" d="M355,423.7l10-0.1c0.5-1.9,1.2-3.7,2.1-5.4l-7.2-7l7.4-7.5l-3.2-3.2l-10.5,10.7l7.2,7
				c-0.9,1.7-1.6,3.5-2.1,5.4l-10,0.1l0.2,15l6.3-0.1L355,423.7z"/>
			<path id="XMLID_270_" class="st3" d="M403.7,454.1c-1.4,0.8-2.8,1.4-4.3,1.9l5.2,5.1l3.1-3.2L403.7,454.1z"/>
			<path id="XMLID_271_" class="st3" d="M360.4,451l7-7.2c-0.9-1.7-1.7-3.4-2.3-5.3l-6.3,0.1c0.6,1.8,1.3,3.6,2.2,5.2l-7,7.2
				l10.7,10.5l3.1-3.2L360.4,451z"/>
		</g>
		<path id="XMLID_130_" class="st5" d="M420,437.9l-0.2-15l-10,0.1c-0.6-1.9-1.3-3.6-2.3-5.3l7-7.2l-10.7-10.5l-7,7.2
			c-1.7-0.9-3.5-1.6-5.4-2.1l-0.1-10l-15,0.2l0.1,10c-1.9,0.6-3.6,1.3-5.3,2.3l-7.2-7l-10.5,10.7l7.2,7c-0.9,1.7-1.6,3.5-2.1,5.4
			l-10,0.1l0.2,15l10-0.1c0.6,1.9,1.3,3.6,2.3,5.3l-7,7.2l10.7,10.5l7-7.2c1.7,0.9,3.5,1.6,5.4,2.1l0.1,10l15-0.2l-0.1-10
			c1.9-0.6,3.6-1.3,5.3-2.3l7.2,7l10.5-10.7l-7.2-7c0.9-1.7,1.6-3.5,2.1-5.4L420,437.9z M384.5,442.5c-6.5,0.1-11.7-5.1-11.8-11.6
			c-0.1-6.5,5.1-11.7,11.6-11.8c6.5-0.1,11.7,5.1,11.8,11.6C396.1,437.2,390.9,442.4,384.5,442.5z"/>
	</g>
	<g id="XMLID_190_">
		<path id="XMLID_183_" class="st1" d="M357.5,654.2H233.8c-4.1,0-7.4-3.3-7.4-7.4v-84.6c0-4.1,3.3-7.4,7.4-7.4h123.8
			c4.1,0,7.4,3.3,7.4,7.4v84.6C364.9,650.9,361.6,654.2,357.5,654.2z"/>
		<path id="XMLID_134_" class="st27" d="M364.9,570.9H226.4v-8.7c0-4.1,3.3-7.4,7.4-7.4h123.8c4.1,0,7.4,3.3,7.4,7.4V570.9z"/>
		<path id="XMLID_132_" class="st5" d="M357.5,654.2H233.8c-4.1,0-7.4-3.3-7.4-7.4v-84.6c0-4.1,3.3-7.4,7.4-7.4h123.8
			c4.1,0,7.4,3.3,7.4,7.4v84.6C364.9,650.9,361.6,654.2,357.5,654.2z"/>
		<path id="XMLID_182_" class="st5" d="M357.5,654.2H233.8c-4.1,0-7.4-3.3-7.4-7.4v-84.6c0-4.1,3.3-7.4,7.4-7.4h123.8
			c4.1,0,7.4,3.3,7.4,7.4v84.6C364.9,650.9,361.6,654.2,357.5,654.2z"/>
		<path id="XMLID_133_" class="st5" d="M364.9,570.9H226.4v-8.7c0-4.1,3.3-7.4,7.4-7.4h123.8c4.1,0,7.4,3.3,7.4,7.4V570.9z"/>
		<g id="XMLID_135_">
			<g id="XMLID_169_">
				<line id="XMLID_172_" class="st25" x1="245.5" y1="641.5" x2="261.1" y2="641.5"/>
				<line id="XMLID_171_" class="st25" x1="234.5" y1="641.5" x2="235.6" y2="641.5"/>
			</g>
			<g id="XMLID_165_">
				<line id="XMLID_168_" class="st25" x1="245.5" y1="632.9" x2="285" y2="632.9"/>
				<line id="XMLID_167_" class="st25" x1="234.5" y1="632.9" x2="235.6" y2="632.9"/>
			</g>
			<g id="XMLID_160_">
				<line id="XMLID_163_" class="st28" x1="303.8" y1="624.2" x2="314.6" y2="624.2"/>
				<line id="XMLID_185_" class="st25" x1="274.4" y1="624.2" x2="294.4" y2="624.2"/>
				<line id="XMLID_164_" class="st29" x1="245.5" y1="624.2" x2="265.3" y2="624.2"/>
				<line id="XMLID_162_" class="st25" x1="234.5" y1="624.2" x2="235.6" y2="624.2"/>
			</g>
			<g id="XMLID_156_">
				<line id="XMLID_173_" class="st25" x1="278.8" y1="615.6" x2="327" y2="615.6"/>
				<line id="XMLID_159_" class="st28" x1="245.5" y1="615.6" x2="270.7" y2="615.6"/>
				<line id="XMLID_158_" class="st25" x1="234.5" y1="615.6" x2="235.6" y2="615.6"/>
			</g>
			<g id="XMLID_152_">
				<line id="XMLID_170_" class="st29" x1="278.8" y1="607" x2="296.8" y2="607"/>
				<line id="XMLID_155_" class="st30" x1="245.5" y1="607" x2="270.7" y2="607"/>
				<line id="XMLID_154_" class="st25" x1="234.5" y1="607" x2="235.6" y2="607"/>
			</g>
			<g id="XMLID_148_">
				<line id="XMLID_157_" class="st28" x1="282.3" y1="598.4" x2="287.2" y2="598.4"/>
				<line id="XMLID_161_" class="st29" x1="263.3" y1="598.4" x2="274.4" y2="598.4"/>
				<line id="XMLID_151_" class="st31" x1="245.5" y1="598.4" x2="254.7" y2="598.4"/>
				<line id="XMLID_150_" class="st25" x1="234.5" y1="598.4" x2="235.6" y2="598.4"/>
			</g>
			<g id="XMLID_144_">
				<line id="XMLID_137_" class="st28" x1="318.3" y1="589.7" x2="327" y2="589.7"/>
				<line id="XMLID_149_" class="st29" x1="273.2" y1="589.7" x2="307.3" y2="589.7"/>
				<line id="XMLID_147_" class="st30" x1="245.5" y1="589.7" x2="265.8" y2="589.7"/>
				<line id="XMLID_146_" class="st25" x1="234.5" y1="589.7" x2="235.6" y2="589.7"/>
			</g>
			<g id="XMLID_139_">
				<line id="XMLID_145_" class="st30" x1="296.8" y1="581.1" x2="314.6" y2="581.1"/>
				<line id="XMLID_138_" class="st32" x1="274.4" y1="581.1" x2="288.2" y2="581.1"/>
				<line id="XMLID_140_" class="st30" x1="259.4" y1="581.1" x2="267.2" y2="581.1"/>
				<line id="XMLID_143_" class="st32" x1="245.5" y1="581.1" x2="251.9" y2="581.1"/>
				<line id="XMLID_142_" class="st25" x1="234.5" y1="581.1" x2="235.6" y2="581.1"/>
			</g>
		</g>
		<g id="XMLID_153_">
			<circle id="XMLID_136_" class="st23" cx="240.1" cy="562.9" r="2.5"/>
			<circle id="XMLID_166_" class="st1" cx="249.1" cy="562.9" r="2.5"/>
			<circle id="XMLID_174_" class="st1" cx="258.2" cy="562.9" r="2.5"/>
		</g>
	</g>
	<path id="XMLID_176_" class="st9" d="M406.8,579.7h-89.6c-4.4,0-8-3.6-8-8v-80.9c0-4.4,3.6-8,8-8h89.6c4.4,0,8,3.6,8,8v80.9
		C414.8,576.1,411.2,579.7,406.8,579.7z"/>
	<path id="XMLID_184_" class="st9" d="M406.8,579.7h-89.6c-4.4,0-8-3.6-8-8v-80.9c0-4.4,3.6-8,8-8h89.6c4.4,0,8,3.6,8,8v80.9
		C414.8,576.1,411.2,579.7,406.8,579.7z"/>
	<path id="XMLID_175_" class="st5" d="M406.8,579.7h-89.6c-4.4,0-8-3.6-8-8v-80.9c0-4.4,3.6-8,8-8h89.6c4.4,0,8,3.6,8,8v80.9
		C414.8,576.1,411.2,579.7,406.8,579.7z"/>
	<rect id="XMLID_186_" x="318.3" y="491" class="st33" width="86.8" height="57.7"/>
	<rect id="XMLID_177_" x="318.3" y="491" class="st5" width="86.8" height="57.7"/>
	<line id="XMLID_179_" class="st5" x1="318.3" y1="557.9" x2="373.1" y2="557.9"/>
	<line id="XMLID_180_" class="st5" x1="318.3" y1="567.1" x2="350.7" y2="567.1"/>
	<polyline id="XMLID_178_" class="st5" points="327,538.4 345.7,519.9 363.1,537.3 	"/>
	<polyline id="XMLID_181_" class="st5" points="395.7,538.4 373.1,508.9 355,529.1 	"/>
	<circle id="XMLID_187_" class="st5" cx="395.5" cy="562.1" r="4.9"/>
	<circle id="XMLID_189_" class="st3" cx="351.2" cy="508.9" r="6.2"/>
	<circle id="XMLID_188_" class="st5" cx="351.2" cy="508.9" r="6.2"/>
	<g id="XMLID_194_">
		<line id="XMLID_198_" class="st5" x1="307.5" y1="454.3" x2="334.3" y2="454.3"/>
		<line id="XMLID_195_" class="st5" x1="293.2" y1="454.3" x2="300.3" y2="454.3"/>
		<line id="XMLID_199_" class="st5" x1="320.9" y1="441.9" x2="334.3" y2="441.9"/>
		<line id="XMLID_196_" class="st5" x1="310.1" y1="441.9" x2="314.1" y2="441.9"/>
	</g>
	<g id="XMLID_200_">
		<line id="XMLID_205_" class="st5" x1="278.5" y1="532.7" x2="299.4" y2="532.7"/>
		<line id="XMLID_204_" class="st5" x1="267.4" y1="532.7" x2="272.9" y2="532.7"/>
		<line id="XMLID_202_" class="st5" x1="290.9" y1="520.3" x2="299.4" y2="520.3"/>
		<line id="XMLID_201_" class="st5" x1="280.5" y1="520.3" x2="283.7" y2="520.3"/>
	</g>
	<g id="XMLID_229_">
		<line id="XMLID_233_" class="st5" x1="611.8" y1="387.6" x2="631.6" y2="387.6"/>
		<line id="XMLID_232_" class="st5" x1="599.6" y1="387.6" x2="605.2" y2="387.6"/>
		<line id="XMLID_231_" class="st5" x1="623.1" y1="375.2" x2="631.6" y2="375.2"/>
		<line id="XMLID_230_" class="st5" x1="612.8" y1="375.2" x2="615.9" y2="375.2"/>
	</g>
	<path id="XMLID_211_" class="st21" d="M627.2,457.5H549c-4.8,0-8.6-3.9-8.6-8.6V411c0-4.8,3.9-8.6,8.6-8.6h78.2
		c4.8,0,8.6,3.9,8.6,8.6v37.8C635.8,453.6,632,457.5,627.2,457.5z"/>
	<path id="XMLID_197_" class="st6" d="M627.2,457.5H549c-4.8,0-8.6-3.9-8.6-8.6V411c0-4.8,3.9-8.6,8.6-8.6h78.2
		c4.8,0,8.6,3.9,8.6,8.6v37.8C635.8,453.6,632,457.5,627.2,457.5z"/>
	<line id="XMLID_214_" class="st34" x1="588.1" y1="417.2" x2="621.9" y2="417.2"/>
	<line id="XMLID_216_" class="st34" x1="588.1" y1="428.1" x2="610.5" y2="428.1"/>
	<g id="XMLID_224_" class="st35">
		<path id="XMLID_217_" class="st9" d="M605.1,444.4h-13.6c-1.8,0-3.3-1.5-3.3-3.3l0,0c0-1.8,1.5-3.3,3.3-3.3h13.6
			c1.8,0,3.3,1.5,3.3,3.3l0,0C608.4,442.9,607,444.4,605.1,444.4z"/>
		<path id="XMLID_213_" class="st36" d="M605.1,444.4h-13.6c-1.8,0-3.3-1.5-3.3-3.3l0,0c0-1.8,1.5-3.3,3.3-3.3h13.6
			c1.8,0,3.3,1.5,3.3,3.3l0,0C608.4,442.9,607,444.4,605.1,444.4z"/>
	</g>
	<g id="XMLID_226_">
		<path id="XMLID_206_" class="st36" d="M574,444.9h-17.9c-2.6,0-4.6-2.1-4.6-4.6v-20.9c0-2.6,2.1-4.6,4.6-4.6H574
			c2.6,0,4.6,2.1,4.6,4.6v20.9C578.6,442.8,576.6,444.9,574,444.9z"/>
		<circle id="XMLID_225_" class="st36" cx="565.1" cy="426.4" r="4.8"/>
		<path id="XMLID_227_" class="st36" d="M556,444.4c0-5,4.1-9.1,9.1-9.1s9.1,4.1,9.1,9.1"/>
	</g>
</g>
</svg>
