<?xml version="1.0" encoding="UTF-8" standalone="no"?>
<!-- Created with Inkscape (http://www.inkscape.org/) -->

<svg
   width="200"
   height="40"
   viewBox="0 0 200 40.000002"
   version="1.1"
   id="svg5"
   xmlns:xlink="http://www.w3.org/1999/xlink"
   xmlns="http://www.w3.org/2000/svg"
   xmlns:svg="http://www.w3.org/2000/svg">
  <defs
     id="defs2">
    <linearGradient
       id="linearGradient14070">
      <stop
         style="stop-color:#690eb4;stop-opacity:1"
         offset="0"
         id="stop14066" />
      <stop
         style="stop-color:#8a2cf1;stop-opacity:1"
         offset="1"
         id="stop14068" />
    </linearGradient>
    <linearGradient
       xlink:href="#linearGradient14070"
       id="linearGradient946"
       x1="0"
       y1="11.13216"
       x2="14.790034"
       y2="19.702349"
       gradientUnits="userSpaceOnUse" />
    <linearGradient
       xlink:href="#linearGradient14070"
       id="linearGradient1384"
       x1="101.36272"
       y1="17.465006"
       x2="120.75328"
       y2="40"
       gradientUnits="userSpaceOnUse" />
    <linearGradient
       xlink:href="#linearGradient14070"
       id="linearGradient5916"
       x1="123.17884"
       y1="0.28614071"
       x2="111.01929"
       y2="23.155153"
       gradientUnits="userSpaceOnUse" />
    <linearGradient
       xlink:href="#linearGradient14070"
       id="linearGradient13842"
       x1="57.244514"
       y1="18.235943"
       x2="57.244514"
       y2="39.990665"
       gradientUnits="userSpaceOnUse" />
    <linearGradient
       xlink:href="#linearGradient14070"
       id="linearGradient14158"
       x1="81.707733"
       y1="17.259676"
       x2="81.707733"
       y2="39.603184"
       gradientUnits="userSpaceOnUse" />
    <linearGradient
       xlink:href="#linearGradient14070"
       id="linearGradient14166"
       x1="138.32607"
       y1="18.139038"
       x2="138.32607"
       y2="39.79686"
       gradientUnits="userSpaceOnUse" />
    <linearGradient
       xlink:href="#linearGradient14070"
       id="linearGradient14174"
       x1="161.68768"
       y1="10.815816"
       x2="161.68768"
       y2="39.860668"
       gradientUnits="userSpaceOnUse" />
    <linearGradient
       xlink:href="#linearGradient14070"
       id="linearGradient14182"
       x1="189.48598"
       y1="18.429743"
       x2="189.48598"
       y2="40.184471"
       gradientUnits="userSpaceOnUse" />
    <linearGradient
       xlink:href="#linearGradient14070"
       id="linearGradient14307"
       x1="33.295441"
       y1="11.13216"
       x2="29.9659"
       y2="40"
       gradientUnits="userSpaceOnUse" />
  </defs>
  <g
     id="layer1">
    <path
       id="path1557"
       style="fill:url(#linearGradient14307);fill-opacity:1.0;stroke-width:0.757196;stroke-linecap:round"
       d="M 29.9659,40 L 46.61362,11.13216 H 33.29544 L 23.30681,28.45247 Z" />
    <path
       id="path1402"
       style="fill:url(#linearGradient946);fill-opacity:1.0;stroke-width:0.757196;stroke-linecap:round"
       d="M 10.10829,28.66015 L 20.21658,11.13216 H 0 Z" />
    <path
       id="path4388"
       style="fill:url(#linearGradient14182);stroke:none;stroke-width:0.952441;stroke-linecap:square;stroke-miterlimit:10;fill-opacity:1"
       d="M 182.98485,17.88778 C 182.01312,17.88778 181.12065,18.13623 180.30756,18.63258 C 179.49448,19.12892 178.84008,19.78406 178.3443,20.59807 C 177.85843,21.41207 177.61531,22.30052 177.61531,23.26344 V 34.62476 C 177.61531,35.58767 177.85843,36.47612 178.3443,37.29013 C 178.84008,38.10414 179.49448,38.75928 180.30756,39.25562 C 181.12065,39.75197 182.01312,39.99976 182.98485,39.99976 H 200 V 34.57984 H 183.23782 C 183.18825,34.57984 183.13849,34.55525 183.0889,34.50562 C 183.03933,34.45598 183.01477,34.40616 183.01477,34.35654 V 31.69117 H 200 V 23.26344 C 200,22.30052 199.75688,21.41207 199.27101,20.59807 C 198.79506,19.78406 198.15074,19.12892 197.33766,18.63258 C 196.52458,18.13623 195.62203,17.88778 194.63046,17.88778 Z M 183.23782,23.3077 H 194.36318 C 194.38798,23.3077 194.41253,23.31418 194.43732,23.32658 C 194.46211,23.33899 194.48666,23.35776 194.51145,23.38257 C 194.53624,23.40739 194.55498,23.43197 194.56738,23.4568 C 194.57977,23.48161 194.58624,23.50619 194.58624,23.53101 V 26.85198 H 183.01477 V 23.53101 C 183.01477,23.50619 183.02058,23.48161 183.03298,23.4568 C 183.04537,23.43197 183.06412,23.40739 183.0889,23.38257 C 183.11369,23.35776 183.13825,23.33899 183.16304,23.32658 C 183.18783,23.31418 183.21304,23.3077 183.23782,23.3077 Z" />
    <path
       id="path4022"
       style="fill:url(#linearGradient14174);stroke:none;stroke-width:0.952441;stroke-linecap:square;stroke-miterlimit:10;fill-opacity:1"
       d="M 169.03914,10.6508 V 17.88778 H 157.4228 C 156.4114,17.88778 155.49876,18.13623 154.68568,18.63258 C 153.8726,19.12892 153.22324,19.78406 152.73737,20.59807 C 152.26142,21.41207 152.02334,22.30052 152.02334,23.26344 V 34.62476 C 152.02334,35.58767 152.26142,36.47612 152.73737,37.29013 C 153.22324,38.10414 153.8726,38.75928 154.68568,39.25562 C 155.49876,39.75197 156.4114,39.99976 157.4228,39.99976 H 174.4529 V 10.6508 Z M 157.69072,23.3077 H 168.81543 C 168.84022,23.3077 168.86543,23.31418 168.89022,23.32658 C 168.91501,23.33899 168.93956,23.35776 168.96435,23.38257 C 168.98914,23.40739 169.00788,23.43197 169.02028,23.4568 C 169.03267,23.48161 169.03914,23.50619 169.03914,23.53101 V 34.35654 C 169.03914,34.38134 169.03267,34.40593 169.02028,34.43075 C 169.00788,34.45557 168.98914,34.4808 168.96435,34.50562 C 168.93956,34.53043 168.91501,34.54921 168.89022,34.56161 C 168.86543,34.57401 168.84022,34.57984 168.81543,34.57984 H 157.69072 C 157.66593,34.57984 157.64073,34.57401 157.61594,34.56161 C 157.59115,34.54921 157.56659,34.53043 157.5418,34.50562 C 157.51701,34.4808 157.49827,34.45557 157.48588,34.43075 C 157.47348,34.40593 157.46702,34.38134 157.46702,34.35654 V 23.53101 C 157.46702,23.50619 157.47348,23.48161 157.48588,23.4568 C 157.49827,23.43197 157.51701,23.40739 157.5418,23.38257 C 157.56659,23.35776 157.59115,23.33899 157.61594,23.32658 C 157.64073,23.31418 157.66593,23.3077 157.69072,23.3077 Z" />
    <path
       id="path4205"
       style="fill:url(#linearGradient14166);stroke:none;stroke-width:0.952441;stroke-linecap:square;stroke-miterlimit:10;fill-opacity:1"
       d="M 132.11501,17.88778 C 131.14328,17.88778 130.25145,18.13623 129.43837,18.63258 C 128.62528,19.12892 127.97024,19.78406 127.47445,20.59807 C 126.98858,21.41207 126.74612,22.30052 126.74612,23.26344 V 34.62476 C 126.74612,35.58767 126.98858,36.47612 127.47445,37.29013 C 127.97024,38.10414 128.62528,38.75928 129.43837,39.25562 C 130.25145,39.75197 131.14328,39.99976 132.11501,39.99976 H 143.76126 C 144.75283,39.99976 145.65539,39.75197 146.46847,39.25562 C 147.28155,38.75928 147.92586,38.10414 148.40181,37.29013 C 148.88768,36.47612 149.1308,35.58767 149.1308,34.62476 V 23.26344 C 149.1308,22.30052 148.88768,21.41207 148.40181,20.59807 C 147.92586,19.78406 147.28155,19.12892 146.46847,18.63258 C 145.65539,18.13623 144.75283,17.88778 143.76126,17.88778 Z M 132.36798,23.3077 H 143.49334 C 143.51812,23.3077 143.54333,23.31418 143.56812,23.32658 C 143.59291,23.33899 143.61747,23.35776 143.64225,23.38257 C 143.66704,23.40739 143.68578,23.43197 143.69818,23.4568 C 143.71058,23.48161 143.71639,23.50619 143.71639,23.53101 V 34.35654 C 143.71639,34.38134 143.71058,34.40593 143.69818,34.43075 C 143.68578,34.45557 143.66704,34.4808 143.64225,34.50562 C 143.61747,34.53043 143.59291,34.54921 143.56812,34.56161 C 143.54333,34.57401 143.51812,34.57984 143.49334,34.57984 H 132.36798 C 132.34319,34.57984 132.31863,34.57401 132.29384,34.56161 C 132.26905,34.54921 132.2445,34.53043 132.2197,34.50562 C 132.19492,34.4808 132.17617,34.45557 132.16378,34.43075 C 132.15138,34.40593 132.14492,34.38134 132.14492,34.35654 V 23.53101 C 132.14492,23.50619 132.15138,23.48161 132.16378,23.4568 C 132.17617,23.43197 132.19492,23.40739 132.2197,23.38257 C 132.2445,23.35776 132.26905,23.33899 132.29384,23.32658 C 132.31863,23.31418 132.34319,23.3077 132.36798,23.3077 Z" />
    <path
       style="fill:url(#linearGradient14158);stroke:none;stroke-width:0.952441;stroke-linecap:square;stroke-miterlimit:10;fill-opacity:1"
       d="M 70.99254,40 V 40 V 17.8878 H 88.02265 C 89.00429,17.8878 89.90165,18.13597 90.71474,18.63232 C 91.52782,19.12866 92.17729,19.78383 92.66316,20.59785 C 93.14903,21.41185 93.39196,22.30031 93.39196,23.26322 V 40 H 87.97802 V 23.53124 C 87.97802,23.48162 87.95819,23.43198 87.91853,23.38234 C 87.87886,23.33271 87.82433,23.30789 87.75492,23.30789 H 76.62958 C 76.58,23.30789 76.53042,23.33271 76.48085,23.38234 C 76.43127,23.43198 76.40648,23.48162 76.40648,23.53124 V 40 Z"
       id="path3888" />
    <path
       id="path4571"
       style="fill:url(#linearGradient13842);stroke:none;stroke-width:0.952441;stroke-linecap:square;stroke-miterlimit:10;fill-opacity:1"
       d="M 50.9372,17.88778 C 49.96546,17.88778 49.07299,18.13623 48.25991,18.63258 C 47.44682,19.12892 46.79242,19.78406 46.29664,20.59807 C 45.81078,21.41207 45.56766,22.30052 45.56766,23.26344 V 34.62476 C 45.56766,35.58767 45.81078,36.47612 46.29664,37.29013 C 46.79242,38.10414 47.44682,38.75928 48.25991,39.25562 C 49.07299,39.75197 49.96546,39.99976 50.9372,39.99976 H 62.5828 C 63.57436,39.99976 64.47692,39.75197 65.29001,39.25562 C 66.10308,38.75928 66.7474,38.10414 67.22335,37.29013 C 67.70922,36.47612 67.95234,35.58767 67.95234,34.62476 V 23.26344 C 67.95234,22.30052 67.70922,21.41207 67.22335,20.59807 C 66.7474,19.78406 66.10308,19.12892 65.29001,18.63258 C 64.47692,18.13623 63.57436,17.88778 62.5828,17.88778 Z M 51.19016,23.3077 H 62.31552 C 62.34032,23.3077 62.36487,23.31418 62.38966,23.32658 C 62.41445,23.33899 62.43966,23.35776 62.46445,23.38257 C 62.48923,23.40739 62.50732,23.43197 62.51972,23.4568 C 62.53211,23.48161 62.53858,23.50619 62.53858,23.53101 V 34.35654 C 62.53858,34.38134 62.53211,34.40593 62.51972,34.43075 C 62.50732,34.45557 62.48923,34.4808 62.46445,34.50562 C 62.43966,34.53043 62.41445,34.54921 62.38966,34.56161 C 62.36487,34.57401 62.34032,34.57984 62.31552,34.57984 H 51.19016 C 51.16537,34.57984 51.14017,34.57401 51.11538,34.56161 C 51.09058,34.54921 51.06604,34.53043 51.04124,34.50562 C 51.01646,34.4808 50.99771,34.45557 50.98532,34.43075 C 50.97292,34.40593 50.96711,34.38134 50.96711,34.35654 V 23.53101 C 50.96711,23.50619 50.97292,23.48161 50.98532,23.4568 C 50.99771,23.43197 51.01646,23.40739 51.04124,23.38257 C 51.06604,23.35776 51.09058,23.33899 51.11538,23.32658 C 51.14017,23.31418 51.16537,23.3077 51.19016,23.3077 Z" />
    <path
       id="path4754"
       style="fill:url(#linearGradient5916);fill-opacity:1.0;stroke-width:0.757196;stroke-linecap:round"
       d="M 114.33351,28.86784 L 130.98123,0 H 117.66305 L 107.67442,17.32031 Z" />
    <path
       id="path4752"
       style="fill:url(#linearGradient1384);fill-opacity:1.0;stroke-width:0.757196;stroke-linecap:round"
       d="M 107.67442,17.32031 L 101.01532,28.86784 L 107.43511,40 H 120.75328 Z" />
  </g>
</svg>
