<?xml version="1.0" encoding="UTF-8" standalone="no"?>
<!-- Created with Inkscape (http://www.inkscape.org/) -->

<svg
   width="24.606251mm"
   height="21.695887mm"
   viewBox="0 0 24.606251 21.695887"
   version="1.1"
   id="svg5"
   xmlns="http://www.w3.org/2000/svg"
   xmlns:svg="http://www.w3.org/2000/svg">
  <defs
     id="defs2" />
  <g
     id="layer1"
     transform="translate(-43.483425,-155.88397)">
    <path
       id="path1557"
       style="fill:#ffcc00;fill-opacity:1;stroke-width:0.0807336;stroke-linecap:round"
       d="M 48.319389,166.51116 L 50.094399,163.43322 H 48.67439 L 47.609385,165.27994 Z" />
    <path
       id="path1402"
       style="fill:#ffcc00;fill-opacity:1;stroke-width:0.0807336;stroke-linecap:round"
       d="M 46.202135,165.30209 L 47.279899,163.43322 H 45.124371 Z" />
    <path
       id="path4388"
       style="fill:#ffcc00;fill-opacity:1;stroke:none;stroke-width:0.101551;stroke-linecap:square;stroke-miterlimit:10"
       d="M 64.634543,164.15352 C 64.530936,164.15352 64.435779,164.18001 64.349086,164.23293 C 64.262394,164.28585 64.19262,164.3557 64.13976,164.44249 C 64.087955,164.52928 64.062033,164.62401 64.062033,164.72668 V 165.93804 C 64.062033,166.04071 64.087955,166.13544 64.13976,166.22223 C 64.19262,166.30902 64.262394,166.37887 64.349086,166.43179 C 64.435779,166.48472 64.530936,166.51114 64.634543,166.51114 H 66.448729 V 165.93325 H 64.661515 C 64.65623,165.93325 64.650925,165.93063 64.645637,165.92534 C 64.640352,165.92005 64.637733,165.91474 64.637733,165.90945 V 165.62526 H 66.448729 V 164.72668 C 66.448729,164.62401 66.422807,164.52928 66.371003,164.44249 C 66.320256,164.3557 66.251558,164.28585 66.164866,164.23293 C 66.078173,164.18001 65.981942,164.15352 65.876219,164.15352 Z M 64.661515,164.7314 H 65.847721 C 65.850365,164.7314 65.852983,164.73209 65.855626,164.73341 C 65.858269,164.73473 65.860887,164.73674 65.86353,164.73938 C 65.866173,164.74203 65.868171,164.74465 65.869493,164.7473 C 65.870814,164.74994 65.871504,164.75256 65.871504,164.75521 V 165.1093 H 64.637733 V 164.75521 C 64.637733,164.75256 64.638353,164.74994 64.639675,164.7473 C 64.640996,164.74465 64.642995,164.74203 64.645637,164.73938 C 64.64828,164.73674 64.650899,164.73473 64.653542,164.73341 C 64.656185,164.73209 64.658873,164.7314 64.661515,164.7314 Z" />
    <path
       id="path4022"
       style="fill:#ffcc00;fill-opacity:1;stroke:none;stroke-width:0.101551;stroke-linecap:square;stroke-miterlimit:10"
       d="M 63.147627,163.3819 V 164.15352 H 61.909072 C 61.801234,164.15352 61.703927,164.18001 61.617235,164.23293 C 61.530543,164.28585 61.461307,164.3557 61.409503,164.44249 C 61.358756,164.52928 61.333372,164.62401 61.333372,164.72668 V 165.93804 C 61.333372,166.04071 61.358756,166.13544 61.409503,166.22223 C 61.461307,166.30902 61.530543,166.37887 61.617235,166.43179 C 61.703927,166.48472 61.801234,166.51114 61.909072,166.51114 H 63.724851 V 163.3819 Z M 61.937638,164.7314 H 63.123774 C 63.126417,164.7314 63.129105,164.73209 63.131749,164.73341 C 63.134392,164.73473 63.137009,164.73674 63.139652,164.73938 C 63.142296,164.74203 63.144294,164.74465 63.145616,164.7473 C 63.146937,164.74994 63.147627,164.75256 63.147627,164.75521 V 165.90945 C 63.147627,165.91209 63.146937,165.91471 63.145616,165.91736 C 63.144294,165.92 63.142296,165.92269 63.139652,165.92534 C 63.137009,165.92799 63.134392,165.92999 63.131749,165.93131 C 63.129105,165.93263 63.126417,165.93325 63.123774,165.93325 H 61.937638 C 61.934995,165.93325 61.932308,165.93263 61.929665,165.93131 C 61.927022,165.92999 61.924403,165.92799 61.92176,165.92534 C 61.919117,165.92269 61.917118,165.92 61.915797,165.91736 C 61.914475,165.91471 61.913787,165.91209 61.913787,165.90945 V 164.75521 C 61.913787,164.75256 61.914475,164.74994 61.915797,164.7473 C 61.917118,164.74465 61.919117,164.74203 61.92176,164.73938 C 61.924403,164.73674 61.927022,164.73473 61.929665,164.73341 C 61.932308,164.73209 61.934995,164.7314 61.937638,164.7314 Z" />
    <path
       id="path4205"
       style="fill:#ffcc00;fill-opacity:1;stroke:none;stroke-width:0.101551;stroke-linecap:square;stroke-miterlimit:10"
       d="M 59.21071,164.15352 C 59.107102,164.15352 59.012014,164.18001 58.925322,164.23293 C 58.838629,164.28585 58.768787,164.3557 58.715925,164.44249 C 58.664121,164.52928 58.638269,164.62401 58.638269,164.72668 V 165.93804 C 58.638269,166.04071 58.664121,166.13544 58.715925,166.22223 C 58.768787,166.30902 58.838629,166.37887 58.925322,166.43179 C 59.012014,166.48472 59.107102,166.51114 59.21071,166.51114 H 60.452454 C 60.558177,166.51114 60.654409,166.48472 60.741101,166.43179 C 60.827793,166.37887 60.896491,166.30902 60.947238,166.22223 C 60.999042,166.13544 61.024964,166.04071 61.024964,165.93804 V 164.72668 C 61.024964,164.62401 60.999042,164.52928 60.947238,164.44249 C 60.896491,164.3557 60.827793,164.28585 60.741101,164.23293 C 60.654409,164.18001 60.558177,164.15352 60.452454,164.15352 Z M 59.237682,164.7314 H 60.423888 C 60.42653,164.7314 60.429218,164.73209 60.431861,164.73341 C 60.434504,164.73473 60.437123,164.73674 60.439765,164.73938 C 60.442408,164.74203 60.444406,164.74465 60.445728,164.7473 C 60.44705,164.74994 60.44767,164.75256 60.44767,164.75521 V 165.90945 C 60.44767,165.91209 60.44705,165.91471 60.445728,165.91736 C 60.444406,165.92 60.442408,165.92269 60.439765,165.92534 C 60.437123,165.92799 60.434504,165.92999 60.431861,165.93131 C 60.429218,165.93263 60.42653,165.93325 60.423888,165.93325 H 59.237682 C 59.235039,165.93325 59.23242,165.93263 59.229777,165.93131 C 59.227134,165.92999 59.224516,165.92799 59.221872,165.92534 C 59.21923,165.92269 59.217231,165.92 59.21591,165.91736 C 59.214588,165.91471 59.213899,165.91209 59.213899,165.90945 V 164.75521 C 59.213899,164.75256 59.214588,164.74994 59.21591,164.7473 C 59.217231,164.74465 59.21923,164.74203 59.221872,164.73938 C 59.224516,164.73674 59.227134,164.73473 59.229777,164.73341 C 59.23242,164.73209 59.235039,164.7314 59.237682,164.7314 Z" />
    <path
       style="fill:#ffcc00;fill-opacity:1;stroke:none;stroke-width:0.101551;stroke-linecap:square;stroke-miterlimit:10"
       d="M 52.693723,166.51116 V 166.51116 V 164.15352 H 54.509504 C 54.614168,164.15352 54.709846,164.17998 54.796539,164.2329 C 54.883231,164.28582 54.952479,164.35568 55.004283,164.44247 C 55.056087,164.52926 55.081989,164.62399 55.081989,164.72666 V 166.51116 H 54.504745 V 164.75523 C 54.504745,164.74994 54.502631,164.74465 54.498402,164.73936 C 54.494172,164.73407 54.488358,164.73142 54.480958,164.73142 H 53.294754 C 53.289468,164.73142 53.284181,164.73407 53.278896,164.73936 C 53.27361,164.74465 53.270967,164.74994 53.270967,164.75523 V 166.51116 Z"
       id="path3888" />
    <path
       id="path4571"
       style="fill:#ffcc00;fill-opacity:1;stroke:none;stroke-width:0.101551;stroke-linecap:square;stroke-miterlimit:10"
       d="M 50.555386,164.15352 C 50.451778,164.15352 50.356621,164.18001 50.269929,164.23293 C 50.183236,164.28585 50.113463,164.3557 50.060602,164.44249 C 50.008798,164.52928 49.982876,164.62401 49.982876,164.72668 V 165.93804 C 49.982876,166.04071 50.008798,166.13544 50.060602,166.22223 C 50.113463,166.30902 50.183236,166.37887 50.269929,166.43179 C 50.356621,166.48472 50.451778,166.51114 50.555386,166.51114 H 51.797061 C 51.902783,166.51114 51.999016,166.48472 52.085709,166.43179 C 52.1724,166.37887 52.241098,166.30902 52.291845,166.22223 C 52.343649,166.13544 52.369571,166.04071 52.369571,165.93804 V 164.72668 C 52.369571,164.62401 52.343649,164.52928 52.291845,164.44249 C 52.241098,164.3557 52.1724,164.28585 52.085709,164.23293 C 51.999016,164.18001 51.902783,164.15352 51.797061,164.15352 Z M 50.582357,164.7314 H 51.768563 C 51.771208,164.7314 51.773825,164.73209 51.776468,164.73341 C 51.779111,164.73473 51.781799,164.73674 51.784442,164.73938 C 51.787085,164.74203 51.789013,164.74465 51.790335,164.7473 C 51.791657,164.74994 51.792346,164.75256 51.792346,164.75521 V 165.90945 C 51.792346,165.91209 51.791657,165.91471 51.790335,165.91736 C 51.789013,165.92 51.787085,165.92269 51.784442,165.92534 C 51.781799,165.92799 51.779111,165.92999 51.776468,165.93131 C 51.773825,165.93263 51.771208,165.93325 51.768563,165.93325 H 50.582357 C 50.579714,165.93325 50.577027,165.93263 50.574384,165.93131 C 50.57174,165.92999 50.569124,165.92799 50.566479,165.92534 C 50.563837,165.92269 50.561838,165.92 50.560517,165.91736 C 50.559195,165.91471 50.558575,165.91209 50.558575,165.90945 V 164.75521 C 50.558575,164.75256 50.559195,164.74994 50.560517,164.7473 C 50.561838,164.74465 50.563837,164.74203 50.566479,164.73938 C 50.569124,164.73674 50.57174,164.73473 50.574384,164.73341 C 50.577027,164.73209 50.579714,164.7314 50.582357,164.7314 Z" />
    <path
       id="path4754"
       style="fill:#ffcc00;fill-opacity:1;stroke-width:0.0807336;stroke-linecap:round"
       d="M 57.314814,165.32423 L 59.089824,162.24629 H 57.669816 L 56.60481,164.09301 Z" />
    <path
       id="path4752"
       style="fill:#ffcc00;fill-opacity:1;stroke-width:0.0807336;stroke-linecap:round"
       d="M 56.60481,164.09301 L 55.894805,165.32423 L 56.579295,166.51116 H 57.999302 Z" />
    <path
       id="path1955"
       style="fill:#ffcc00;stroke-width:0.358715;stroke-linecap:round"
       d="M 66.448656,166.77943 H 45.124377 V 172.56564 L 55.786776,177.57986 L 66.448656,172.56564 Z" />
    <path
       id="path2570"
       style="fill:#ffcc00;stroke-width:1.3725;stroke-linecap:round"
       d="M 170.54883,594.63672 V 613.21484 H 251.14453 V 594.63672 Z"
       transform="scale(0.26458333)" />
  </g>
</svg>
